<svg id="Layer_1" data-name="Layer 1" xmlns="http://www.w3.org/2000/svg" xmlns:xlink="http://www.w3.org/1999/xlink" viewBox="0 0 310.17 100"><defs><style>.cls-1{fill:url(#linear-gradient);}.cls-2{fill:#cbb26b;}</style><linearGradient id="linear-gradient" x1="-514.65" y1="4.43" x2="-513.65" y2="4.43" gradientTransform="translate(51480 -494) scale(100)" gradientUnits="userSpaceOnUse"><stop offset="0" stop-color="#b88746"/><stop offset="1" stop-color="#fdf5a6"/></linearGradient></defs><path class="cls-1" d="M64.89-101.5a50,50,0,0,0-50,50,50,50,0,0,0,50,50,50,50,0,0,0,50-50A50,50,0,0,0,64.89-101.5ZM45.39-95a6.4,6.4,0,0,1,.5-1.41,48.19,48.19,0,0,1,16.37-3.78c-4.28,3.44-9.74,6.56-14,7.62C45.89-92,45.06-93.37,45.39-95ZM16.18-48.5q-.09-1.48-.09-3a48.75,48.75,0,0,1,4.72-21c3.92-5.36,7.62-8.26,9.35-11a21.51,21.51,0,0,0,2.08-4.29,49.09,49.09,0,0,1,10.33-7.12c-1.29,2.42-1.31,4.92.37,6.27,3.86,3.14,16.45-5.62,32.36-4.49,13.93,1,20.49,9,18.74,11.81s-7.1.71-21.61-.56c-13.2-1.16-28.63-.78-32.3,9.17-1.92,5.18.15,9.3,6.46,16.55a73.57,73.57,0,0,1,7.68,10.79c5.92,10.26,8.09,18.67,2.67,20.14-7.84,2.13-15.24-10-19.47-19C31.3-57.5,28.74-67.65,25.77-68c-4.19-.57-8.21,6.1-9,15.47A35.17,35.17,0,0,1,16.18-48.5ZM36.89-12.84a5.78,5.78,0,0,1-1.43.3A49,49,0,0,1,24-24.86c5.12,2,10.55,5.16,13.62,8.35C39.32-14.75,38.55-13.39,36.89-12.84Zm31.79,10c-6.58-.7-10.92-2.45-14.16-2.59a22.55,22.55,0,0,0-4.78.35A48.24,48.24,0,0,1,38.46-10.5c2.75-.09,4.91-1.33,5.24-3.45.76-4.9-13.09-11.43-20.06-25.78-6.11-12.54-2.45-22.22.85-22.1s4.17,5.79,10.32,19c5.59,12,13.64,25.18,24.09,23.39,5.45-.94,8-4.79,11.1-13.87a76.18,76.18,0,0,1,5.51-12c5.92-10.26,12.13-16.34,16.1-12.39,5.77,5.74-1,18.2-6.76,26.39-8.39,12-15.87,19.25-14.74,22,1.61,3.92,9.4,4.06,17.91.07a41.55,41.55,0,0,1,3.87-1.54,48.45,48.45,0,0,1-23.17,8ZM108.41-29.4c-.84-5.43-.81-11.72.41-16,.68-2.35,2.25-2.36,3.53-1.23a5.45,5.45,0,0,1,1,1.09A48.18,48.18,0,0,1,108.41-29.4Zm-.6-22.54c-4.62,1.79-3.35,17.06-12.29,30.27-7.85,11.57-18,13.24-19.59,10.32s2.92-6.5,11.28-18.43c7.61-10.85,15-24.4,8.21-32.56-3.53-4.25-8.13-4.52-17.56-2.68a76.92,76.92,0,0,1-13.19,1.26c-11.84,0-20.22-2.33-18.78-7.76,2.08-7.86,16.27-8.21,26.24-7.33,14.54,1.28,24.6,4.11,26.43,1.75,2.59-3.35-1.18-10.17-8.89-15.55a36.85,36.85,0,0,1-3.27-2.56,49.07,49.07,0,0,1,18.49,16.06c2.68,6.06,3.33,10.65,4.84,13.56a21.07,21.07,0,0,0,2.69,4,49.59,49.59,0,0,1,1,10.09v2.36C112-51.5,109.81-52.71,107.81-51.94Z" transform="translate(-14.89 101.5)"/><g id="SvgjsG1008"><path class="cls-2" d="M129.44-37.84h1.87l1.49-3.57h11.07l2.72,6.15h7.81L141-64.92h-2.72L125-35.25h8.28l1.44-3.4h8.44l-.63-1.44h-8.75l-1.35,3.35h-5.05l11.75-26.73h1L152-36.74h-4.5l-2.72-6.07h-13.2Zm5.05-7.47,5.18-12.35,8.7,19.78h1.74L139.67-61.14,132-44h12.31l-4.67-10.32-3.22,7.77h1.65l1.57-3.86,2.36,5.1ZM157.58-65h1.57v28.22h4.2V-47h5.22a8.18,8.18,0,0,0,4.79-1.31c2-1.23,3.1-3.74,3.1-7,0-5.27-3-8.07-8.44-8.07H162v10.56h5.43c2.21,0,3.06-.68,3.06-2.5a1.93,1.93,0,0,0-1.62-2.21,1.94,1.94,0,0,0-.59,0H165v3.44h-1.58V-59h4.8a3.35,3.35,0,0,1,3.66,3,3.18,3.18,0,0,1,0,.69c0,2.71-1.49,4.07-4.5,4.07h-6.87V-65H168c6.15,0,9.93,3.57,9.93,9.64,0,6.28-3.44,9.88-9.38,9.88h-3.65v10.27h-7.34Zm2.93,15.11h7.13c3.94,0,5.85-1.7,5.85-5.26,0-3.35-1.82-5.31-4.75-5.31h-5.31v-1.48h5.31a6.52,6.52,0,0,1,3.27.8c2,1.06,3,3.18,3,6,0,4.41-2.46,6.75-7.38,6.75h-5.69v10.6H160.5ZM190-59.44H200.1v-4H182v1.32h16.6v1.52H180.54V-65h21.09v7.09H191.49V-38H190Zm-2.85,1.53h-6.57V-59.4h8.1v22.62h4.25V-56.56h1.52v21.35h-7.3Zm17.19-7h1.53v28.17h16.25V-41h-12v-4h1.53v2.54h12v7.3H204.3Zm2.89,0H223.4v7.26H213.21V-59.1h8.66v-4.2H208.71V-51h9.89v1.53H207.19Zm0,16.68h12.9V-52.4h-10V-62h10.27v1.5h-8.74v6.58h10v7.29H208.71v7.05H220.6V-38H207.19ZM246.57-45c-2.68,1.74-4,2.25-5.82,2.25a7.05,7.05,0,0,1-3.6-1A7.7,7.7,0,0,1,233.37-50a7.41,7.41,0,0,1,7.37-7.43h0A7.18,7.18,0,0,1,245-56.09a3.72,3.72,0,0,1,.76.6l.64.46,2.84-3.35-.46-.47a7.43,7.43,0,0,0-1.15-.85,11.12,11.12,0,0,0-6.91-2.3,12,12,0,0,0-8.44,3.48A12.28,12.28,0,0,0,228.79-50a12,12,0,0,0,12,12,11.65,11.65,0,0,0,6.37-2l-.85-1.28a9.72,9.72,0,0,1-5.56,1.7A10.52,10.52,0,0,1,230.31-50a10.53,10.53,0,0,1,10.44-10.44,10.82,10.82,0,0,1,6.07,2l.34.3-.93,1.06a.75.75,0,0,1-.3-.17,9.12,9.12,0,0,0-5.18-1.61,8.81,8.81,0,0,0-4.45,1.14A9.26,9.26,0,0,0,231.84-50,9,9,0,0,0,233-45.65a9.12,9.12,0,0,0,7.68,4.58c2,0,3.61-.59,6-2.12l2.38,3.52c-3.1,2-5.52,2.89-8.41,2.89a13,13,0,0,1-6.62-1.78,13.26,13.26,0,0,1-4.89-18.09,13.25,13.25,0,0,1,11.51-6.65,13.08,13.08,0,0,1,9,3.48l.25.21.34.34,1.06-1.1-.59-.6a15.1,15.1,0,0,0-10-3.82,14.38,14.38,0,0,0-7.38,2A15,15,0,0,0,225.94-50a14.26,14.26,0,0,0,2,7.34,14.81,14.81,0,0,0,12.77,7.47c3.36,0,6.16-1.06,9.93-3.65l.6-.38-4-6.07Zm5.3-20h7.39v9.81h-1.57v-8.18H253.4v26.56h4.29V-45h1.57v9.76h-7.39Zm2.93,2.81h1.53v8.36h12.94V-64.92h1.49v12.61h-16Zm20.5-1.23h-1.45v11.21h-1.52V-64.92h4.45v29.71H275.3Zm-6,17h-13v8.59h-1.57V-47.9h16v11.12h1.57V-49.3H254.76v-1.48h19.09v15.57h-4.58V-46.33Zm31.45-2a8.88,8.88,0,0,1-.13,8.32,10.1,10.1,0,0,1-13.91,3.27,10.15,10.15,0,0,1-3.28-3.27,8.91,8.91,0,0,1-.12-8.32,9.52,9.52,0,0,1,2-2.46,7.84,7.84,0,0,1-2-8.58C284.68-63.22,288.79-65,292-65s7.3,1.78,8.74,5.64c.59,1.57,1.53,5.69-2.72,9.21a13.32,13.32,0,0,1-1.52,1.06,6.42,6.42,0,0,1,1.74,2,6.29,6.29,0,0,1,0,5.77A7.16,7.16,0,0,1,292-37.88h0a7.24,7.24,0,0,1-6.19-3.44,6.32,6.32,0,0,1,0-5.77c1.14-2.08,3.56-3.31,6-4.29,4.29-1.7,6-3.9,5-6.53a5.31,5.31,0,0,0-7.16-2.31,5.37,5.37,0,0,0-2.31,2.31c-.67,1.82-.08,3.39,1.74,4.79a1,1,0,0,0,.3-.13c.47-.21.89-.38,1.32-.55s.72-.34,1.06-.46l1.1-.6c1.23-.8,1.61-1.44,1.32-2.16a2.42,2.42,0,0,0-2.08-1.11c-.68,0-1.87.34-2.12,1.11a1.09,1.09,0,0,0,.08,1.14,10.92,10.92,0,0,0,.85.94l-.64.29a4.62,4.62,0,0,1-.76.3,4.09,4.09,0,0,1-.72-.72,2.52,2.52,0,0,1-.26-2.5c.55-1.53,2.42-2.08,3.57-2.08s3,.55,3.52,2.08a2.5,2.5,0,0,1-.26,2.5,8,8,0,0,1-3,2.21c-.34.12-.72.29-1.1.46-.64.26-1.27.56-1.95.85l-.38.21-.39-.25c-3.43-2.38-3.35-5-2.67-6.87,1-2.68,3.91-3.87,6.2-3.87a6.55,6.55,0,0,1,6.15,3.87,5.06,5.06,0,0,1-.64,4.92,11.41,11.41,0,0,1-5.22,3.6c-2.16.85-4.32,1.91-5.22,3.57a4.67,4.67,0,0,0,.05,4.29,5.75,5.75,0,0,0,7.94,1.77,5.64,5.64,0,0,0,1.77-1.77,4.62,4.62,0,0,0,.05-4.29,5.2,5.2,0,0,0-1.9-1.91c-1.1.59-2.12,1-2.72,1.27a6.31,6.31,0,0,0-2.8,1.91,2,2,0,0,0,0,1.7A2.72,2.72,0,0,0,292-42.08a2.68,2.68,0,0,0,2.42-1.32,2.13,2.13,0,0,0-.51-2.55,2.59,2.59,0,0,0-.51-.42,13.58,13.58,0,0,0,1.44-.68,4,4,0,0,1,1,1.19,3.53,3.53,0,0,1-.05,3.27,4.56,4.56,0,0,1-6.32,1.27,4.79,4.79,0,0,1-1.27-1.27,3.82,3.82,0,0,1,0-3.27,7.45,7.45,0,0,1,3.52-2.59h0A23,23,0,0,0,297-51.34c3.35-2.8,2.84-5.89,2.25-7.51-1.19-3.18-4.63-4.62-7.3-4.62s-6.16,1.44-7.34,4.62c-.6,1.62-1.11,4.71,2.24,7.51l.77.64-.77.6a8.06,8.06,0,0,0-2.29,2.5,7.36,7.36,0,0,0,.09,6.83,8.2,8.2,0,0,0,7.25,4h.1a8.18,8.18,0,0,0,7.25-4,7.3,7.3,0,0,0,.09-6.83,4.68,4.68,0,0,0-.94-1.32,6.88,6.88,0,0,0,1.15-1,7,7,0,0,1,1.15,1.62Zm23.34,0a8.85,8.85,0,0,1-.16,8.39A10.1,10.1,0,0,1,310-36.73,10.15,10.15,0,0,1,306.74-40a8.94,8.94,0,0,1-.13-8.32,10.09,10.09,0,0,1,2-2.46,7.84,7.84,0,0,1-2-8.58C308-63.22,312.13-65,315.36-65s7.3,1.78,8.74,5.64c.59,1.57,1.53,5.69-2.72,9.21a13.32,13.32,0,0,1-1.52,1.06,6.42,6.42,0,0,1,1.74,2,6.29,6.29,0,0,1-.05,5.77,7.16,7.16,0,0,1-6.19,3.44h-.05a7.24,7.24,0,0,1-6.19-3.44,6.32,6.32,0,0,1,0-5.77c1.14-2.08,3.56-3.31,6-4.29,4.29-1.7,6-3.9,5-6.53A5.31,5.31,0,0,0,313-60.22a5.37,5.37,0,0,0-2.31,2.31c-.67,1.82-.08,3.39,1.74,4.79a1,1,0,0,0,.3-.13c.47-.21.89-.38,1.32-.55s.72-.34,1.06-.46l1.1-.6c1.23-.8,1.61-1.44,1.32-2.16a2.42,2.42,0,0,0-2.08-1.11c-.68,0-1.87.34-2.12,1.11a1.09,1.09,0,0,0,.08,1.14,10.92,10.92,0,0,0,.85.94l-.64.29a4.62,4.62,0,0,1-.76.3,4.09,4.09,0,0,1-.72-.72,2.52,2.52,0,0,1-.26-2.5c.55-1.53,2.42-2.08,3.57-2.08s3,.55,3.52,2.08a2.5,2.5,0,0,1-.26,2.5,8,8,0,0,1-3,2.21c-.34.12-.72.29-1.1.46-.64.26-1.27.56-1.95.85l-.38.21-.39-.25c-3.43-2.38-3.35-5-2.67-6.87,1-2.68,3.91-3.87,6.2-3.87a6.55,6.55,0,0,1,6.15,3.87,5.06,5.06,0,0,1-.64,4.92,11.41,11.41,0,0,1-5.22,3.6c-2.16.85-4.32,1.91-5.22,3.57a4.67,4.67,0,0,0,.05,4.29,5.75,5.75,0,0,0,7.94,1.77,5.64,5.64,0,0,0,1.77-1.77,4.59,4.59,0,0,0,0-4.29,5.19,5.19,0,0,0-1.87-1.91c-1.1.59-2.12,1-2.72,1.27a6.31,6.31,0,0,0-2.8,1.91,2.06,2.06,0,0,0,.05,1.7,2.74,2.74,0,0,0,2.46,1.32,2.68,2.68,0,0,0,2.42-1.32,2.13,2.13,0,0,0-.51-2.55,2.59,2.59,0,0,0-.51-.42,13.58,13.58,0,0,0,1.44-.68,4,4,0,0,1,1,1.19,3.56,3.56,0,0,1,0,3.27,4.56,4.56,0,0,1-6.32,1.27,4.79,4.79,0,0,1-1.27-1.27,3.82,3.82,0,0,1,0-3.27A7.46,7.46,0,0,1,315-48.45h0a22.49,22.49,0,0,0,5.35-2.89c3.35-2.8,2.84-5.89,2.25-7.51-1.19-3.18-4.63-4.62-7.3-4.62S309.2-62,308-58.85c-.6,1.62-1.11,4.71,2.24,7.51l.77.64-.77.6A8.06,8.06,0,0,0,308-47.6a7.36,7.36,0,0,0,.09,6.83,8.2,8.2,0,0,0,7.25,4h.05a8.18,8.18,0,0,0,7.25-4,7.3,7.3,0,0,0,.09-6.83,4.68,4.68,0,0,0-.94-1.32,6.88,6.88,0,0,0,1.15-1,7,7,0,0,1,1.11,1.6Z" transform="translate(-14.89 101.5)"/></g></svg>