<svg xmlns="http://www.w3.org/2000/svg" xmlns:xlink="http://www.w3.org/1999/xlink" viewBox="0 0 100 100"><defs><style>.cls-1{fill:url(#linear-gradient);}</style><linearGradient id="linear-gradient" x1="-529.54" y1="105.92" x2="-528.54" y2="105.92" gradientTransform="translate(52954.39 -10542.5) scale(100)" gradientUnits="userSpaceOnUse"><stop offset="0" stop-color="#b88746"/><stop offset="1" stop-color="#fdf5a6"/></linearGradient></defs><g id="Layer_2" data-name="Layer 2"><g id="Layer_1-2" data-name="Layer 1"><path class="cls-1" d="M50,0a50,50,0,1,0,50,50A50,50,0,0,0,50,0ZM30.5,6.46A6.4,6.4,0,0,1,31,5.05,48.08,48.08,0,0,1,47.37,1.27c-4.28,3.44-9.74,6.56-14,7.62C31,9.48,30.17,8.13,30.5,6.46ZM1.29,53q-.09-1.48-.09-3A48.75,48.75,0,0,1,5.92,29c3.92-5.36,7.62-8.26,9.35-11a21.51,21.51,0,0,0,2.08-4.29A48.83,48.83,0,0,1,27.68,6.59c-1.29,2.42-1.31,4.92.37,6.27C31.91,16,44.5,7.24,60.41,8.37c13.93,1,20.49,9,18.74,11.81s-7.1.71-21.61-.56c-13.2-1.16-28.63-.78-32.3,9.17-1.92,5.18.15,9.3,6.46,16.55a73.57,73.57,0,0,1,7.68,10.79c5.92,10.26,8.09,18.67,2.67,20.14-7.84,2.13-15.24-10-19.47-19C16.41,44,13.85,33.85,10.88,33.45c-4.19-.57-8.21,6.1-9,15.47A37.46,37.46,0,0,1,1.29,53ZM22,88.66a5.78,5.78,0,0,1-1.43.3A49,49,0,0,1,9.11,76.64c5.12,2,10.55,5.16,13.62,8.35C24.43,86.75,23.66,88.11,22,88.66Zm31.79,10c-6.58-.7-10.92-2.45-14.16-2.59a22.55,22.55,0,0,0-4.78.35A48.24,48.24,0,0,1,23.57,91c2.75-.09,4.91-1.33,5.24-3.45.76-4.9-13.09-11.43-20.06-25.78C2.64,49.23,6.3,39.55,9.6,39.67s4.17,5.79,10.32,19c5.59,12,13.64,25.18,24.09,23.39,5.45-.94,8-4.79,11.1-13.87a75.29,75.29,0,0,1,5.51-12c5.92-10.26,12.13-16.34,16.1-12.39,5.77,5.74-1,18.2-6.76,26.39-8.39,12-15.87,19.25-14.74,22,1.61,3.92,9.4,4.06,17.91.07A40.47,40.47,0,0,1,77,90.67a48.45,48.45,0,0,1-23.17,8ZM93.52,72.1c-.84-5.43-.81-11.72.41-16,.68-2.35,2.25-2.36,3.53-1.23a5.45,5.45,0,0,1,1,1.09A48.41,48.41,0,0,1,93.52,72.1Zm-.61-22.54c-4.62,1.79-3.35,17.06-12.29,30.27C72.77,91.4,62.57,93.07,61,90.15S64,83.65,72.31,71.72c7.61-10.85,15-24.4,8.21-32.56C77,34.91,72.39,34.64,63,36.48a76.73,76.73,0,0,1-13.19,1.26C37.93,37.74,29.55,35.41,31,30c2.08-7.86,16.27-8.21,26.24-7.33,14.54,1.28,24.6,4.11,26.43,1.75,2.59-3.35-1.18-10.17-8.89-15.55A40,40,0,0,1,71.5,6.29,48.92,48.92,0,0,1,90,22.35c2.68,6.06,3.33,10.65,4.84,13.56a22.05,22.05,0,0,0,2.69,4,48.89,48.89,0,0,1,1,10.09v2.36C97.06,50,94.91,48.79,92.91,49.56Z"/></g></g></svg>